<?xml version="1.0" encoding="utf-8"?>
<!-- Generator: Adobe Illustrator 16.0.4, SVG Export Plug-In . SVG Version: 6.00 Build 0)  -->
<!DOCTYPE svg PUBLIC "-//W3C//DTD SVG 1.1//EN" "http://www.w3.org/Graphics/SVG/1.1/DTD/svg11.dtd">
<svg version="1.1" id="Layer_1" xmlns="http://www.w3.org/2000/svg" xmlns:xlink="http://www.w3.org/1999/xlink" x="0px" y="0px"
	 width="54px" height="43.833px" viewBox="-1.667 -1 54 43.833" enable-background="new -1.667 -1 54 43.833" xml:space="preserve">
<g id="VYlHpx_1_">
	<g>
		<path fill="none" d="M25.32,4.899c-0.486-0.405-1.093-0.948-1.738-1.44c-2.58-1.967-5.442-3.328-8.791-3.412
			C9.909-0.075,6.095,2.125,3.086,5.579c-3.188,3.656-3.648,7.998-2.549,12.507c0.99,4.07,3.466,7.354,6.375,10.346
			c5.029,5.172,11.145,9.038,17.105,13.082c1.004,0.682,2.12,0.635,3.117-0.062c3.781-2.646,7.607-5.231,11.288-8.001
			c3.88-2.914,7.363-6.229,9.911-10.352c2.03-3.275,2.972-6.805,2.571-10.61C50.457,8.261,48.23,5.05,44.652,2.65
			c-4.283-2.876-8.856-3.563-13.615-1.303C29.046,2.293,27.271,3.668,25.32,4.899z"/>
		<path fill="#F60F0F" d="M25.32,4.899c1.952-1.231,3.726-2.606,5.72-3.552c4.757-2.26,9.33-1.574,13.618,1.301
			c3.576,2.399,5.803,5.609,6.251,9.838c0.399,3.809-0.536,7.335-2.57,10.614c-2.548,4.12-6.032,7.433-9.911,10.351
			c-3.683,2.768-7.508,5.354-11.287,8c-1,0.696-2.116,0.745-3.118,0.063c-5.963-4.049-12.078-7.91-17.106-13.082
			c-2.911-2.992-5.384-6.279-6.375-10.348C-0.559,13.576-0.097,9.232,3.09,5.577c3.008-3.453,6.823-5.652,11.703-5.53
			c3.35,0.084,6.211,1.446,8.791,3.412C24.228,3.951,24.834,4.494,25.32,4.899z M25.46,36.148c0.121-0.053,0.211-0.07,0.276-0.116
			c3.647-2.634,7.366-5.179,10.911-7.937c3.066-2.388,5.787-5.146,7.576-8.604c2.566-4.979,1.957-10.434-4.092-13.42
			C38.118,5.08,36.05,4.969,33.943,5.76c-2.495,0.938-4.389,2.617-6.026,4.589c-1.472,1.771-3.297,1.751-4.786,0.021
			c-0.884-1.028-1.86-2.02-2.938-2.857C15.121,3.557,8.192,5.253,5.99,10.97c-0.935,2.419-0.747,4.854,0.227,7.229
			c1.403,3.424,3.872,6.1,6.613,8.577C16.73,30.297,21.127,33.197,25.46,36.148z"/>
		<path fill="none" d="M25.46,36.148c-4.333-2.951-8.729-5.853-12.63-9.373c-2.74-2.479-5.21-5.153-6.613-8.577
			C5.241,15.824,5.055,13.39,5.99,10.97c2.203-5.717,9.131-7.413,14.204-3.46c1.077,0.838,2.052,1.831,2.938,2.858
			c1.491,1.732,3.315,1.751,4.786-0.021c1.639-1.972,3.531-3.652,6.025-4.589c2.107-0.792,4.177-0.683,6.188,0.311
			c6.048,2.987,6.658,8.441,4.091,13.42c-1.787,3.456-4.509,6.217-7.574,8.604c-3.547,2.755-7.265,5.3-10.912,7.938
			C25.671,36.078,25.581,36.098,25.46,36.148z"/>
	</g>
</g>
</svg>
